# File created by Blade
# Date/Time:  Tue Sep 30 19:31:19 2014
#---------------------------------------------------------
:version 1.10
:name HOM
:units
  mass 1.0
  length 1.000000
  angle deg
:documentation
     Acclaim Skeleton File
:root
   axis xyz
   order TX TY TZ RX RY RZ
   position 0.000000 0.000000 0.000000
   orientation 0 0 0
:bonedata
   begin
      id 1
      name Spine_dum
      direction 0.000000 1.000000 0.000000
      length 3.241213
      axis 0.0 0.0 0.0 xyz
   end
   begin
      id 2
      name LeftUpLeg_dum
      direction 1.000000 0.000000 0.000000
      length 3.434019
      axis 0.0 0.0 0.0 xyz
   end
   begin
      id 3
      name RightUpLeg_dum
      direction -1.000000 0.000000 0.000000
      length 3.434019
      axis 0.0 0.0 0.0 xyz
   end
   begin
      id 4
      name Spine
      direction 0.000000 1.000000 0.000000
      length 0.000000
      axis 0.0 0.0 0.0 xyz
      dof rx ry rz
   end
   begin
      id 5
      name Spine_dum1
      direction 0.000000 1.000000 0.000000
      length 18.382958
      axis 0.0 0.0 0.0 xyz
   end
   begin
      id 6
      name Spine_dum2
      direction 0.000000 1.000000 0.000000
      length 12.828261
      axis 0.0 0.0 0.0 xyz
   end
   begin
      id 7
      name Spine_dum3
      direction 0.000000 1.000000 0.000000
      length 12.828261
      axis 0.0 0.0 0.0 xyz
   end
   begin
      id 8
      name Head
      direction 0.000000 1.000000 0.000000
      length 4.527550
      axis 0.0 0.0 0.0 xyz
      dof rx ry rz
   end
   begin
      id 9
      name LeftShoulder
      direction 1.000000 0.000000 0.000000
      length 7.748055
      axis 0.0 0.0 -90.0 xyz
      dof rx ry rz
   end
   begin
      id 10
      name LeftArm
      direction 1.000000 0.000000 0.000000
      length 10.635614
      axis 0.0 0.0 -90.0 xyz
      dof rx ry rz
   end
   begin
      id 11
      name LeftForeArm
      direction 1.000000 0.000000 0.000000
      length 8.346755
      axis 0.0 0.0 -90.0 xyz
      dof ry rz rx
   end
   begin
      id 12
      name LeftHand
      direction 0.000000 0.000000 0.000000
      length 0.000000
      axis 0.0 0.0 -90.0 xyz
      dof rx ry rz
   end
   begin
      id 13
      name LeftHand_dum1
      direction 0.000000 0.000000 0.000000
      length 0.000000
      axis 0.0 0.0 -90.0 xyz
   end
   begin
      id 14
      name LeftHand_dum2
      direction 1.000000 0.000000 0.000000
      length 3.937000
      axis 0.0 0.0 -90.0 xyz
   end
   begin
      id 15
      name LeftHandThumb1
      direction 0.000000 0.000000 1.000000
      length 3.937000
      axis 0.0 0.0 -90.0 xyz
      dof rx rz ry
   end
   begin
      id 16
      name RightShoulder
      direction -1.000000 0.000000 0.000000
      length 7.748055
      axis 0.0 0.0 90.0 xyz
      dof rx ry rz
   end
   begin
      id 17
      name RightArm
      direction -1.000000 0.000000 0.000000
      length 10.635614
      axis 0.0 0.0 90.0 xyz
      dof rx ry rz
   end
   begin
      id 18
      name RightForeArm
      direction -1.000000 0.000000 0.000000
      length 8.346755
      axis 0.0 0.0 90.0 xyz
      dof ry rz rx
   end
   begin
      id 19
      name RightHand
      direction 0.000000 0.000000 0.000000
      length 0.000000
      axis 0.0 0.0 90.0 xyz
      dof rx ry rz
   end
   begin
      id 20
      name RightHand_dum1
      direction 0.000000 0.000000 0.000000
      length 0.000000
      axis 0.0 0.0 90.0 xyz
   end
   begin
      id 21
      name RightHand_dum2
      direction -1.000000 0.000000 0.000000
      length 3.937000
      axis 0.0 0.0 90.0 xyz
   end
   begin
      id 22
      name RightHandThumb1
      direction 0.000000 0.000000 1.000000
      length 3.937000
      axis 0.0 0.0 90.0 xyz
      dof rx rz ry
   end
   begin
      id 23
      name LeftUpLeg
      direction 0.000000 -1.000000 0.000000
      length 15.713025
      axis 0.0 0.0 0.0 xyz
      dof rx ry rz
   end
   begin
      id 24
      name LeftLeg
      direction 0.000000 -1.000000 0.000000
      length 14.435119
      axis 0.0 0.0 0.0 xyz
      dof rx ry rz
   end
   begin
      id 25
      name LeftFoot
      direction 0.000000 -0.258819 0.965926
      length 4.938895
      axis 15.0 0.0 0.0 xyz
      dof rx ry rz
   end
   begin
      id 26
      name LeftToeBase
      direction 0.000000 0.000000 1.000000
      length 2.952750
      axis 0.0 0.0 0.0 xyz
      dof rx ry rz
   end
   begin
      id 27
      name RightUpLeg
      direction 0.000000 -1.000000 0.000000
      length 15.713025
      axis 0.0 0.0 0.0 xyz
      dof rx ry rz
   end
   begin
      id 28
      name RightLeg
      direction 0.000000 -1.000000 0.000000
      length 14.435119
      axis 0.0 0.0 0.0 xyz
      dof rx ry rz
   end
   begin
      id 29
      name RightFoot
      direction 0.000000 -0.258819 0.965926
      length 4.938895
      axis 15.0 0.0 0.0 xyz
      dof rx ry rz
   end
   begin
      id 30
      name RightToeBase
      direction 0.000000 0.000000 1.000000
      length 2.952750
      axis 0.0 0.0 0.0 xyz
      dof rx ry rz
   end
:hierarchy
   begin
      root Spine_dum LeftUpLeg_dum RightUpLeg_dum
      Spine_dum Spine
      LeftUpLeg_dum LeftUpLeg
      RightUpLeg_dum RightUpLeg
      Spine Spine_dum1 Spine_dum2 Spine_dum3
      Spine_dum1 Head
      Spine_dum2 LeftShoulder
      Spine_dum3 RightShoulder
      LeftShoulder LeftArm
      LeftArm LeftForeArm
      LeftForeArm LeftHand
      LeftHand LeftHand_dum1 LeftHand_dum2
      LeftHand_dum1 LeftHandThumb1
      RightShoulder RightArm
      RightArm RightForeArm
      RightForeArm RightHand
      RightHand RightHand_dum1 RightHand_dum2
      RightHand_dum1 RightHandThumb1
      LeftUpLeg LeftLeg
      LeftLeg LeftFoot
      LeftFoot LeftToeBase
      RightUpLeg RightLeg
      RightLeg RightFoot
      RightFoot RightToeBase
   end

# File created by Blade
# Date/Time:  Thu Sep 25 17:54:10 2014
# Frame Rate: 120.000 fps
#------------------------------------------------------
:FULLY-SPECIFIED
:DEGREES
1
root -0.249931 32.401293 -6.195788 33.578019 3.767391 0.316192
Spine -39.502927 -2.809200 0.917668
Head 11.286927 -5.752653 -8.267739
LeftShoulder -15.247025 39.254067 27.517949
LeftArm 42.396996 -47.496248 -48.873732
LeftForeArm 14.938895 -0.000000 -1.236390
LeftHand -20.516176 -0.000000 -7.213586
LeftHandThumb1 -26.253704 0.000000 33.147579
RightShoulder -19.118507 -41.823762 -27.960883
RightArm 45.638764 34.095496 51.493215
RightForeArm 7.645578 -0.000000 -5.223782
RightHand 6.617987 0.000000 9.382772
RightHandThumb1 -24.326973 -0.000000 -32.862282
LeftUpLeg -28.760310 1.873702 0.950493
LeftLeg 0.701459 -0.000000 -0.000000
LeftFoot -6.937233 -1.179410 -0.800242
LeftToeBase 2.803046 -0.000000 -0.000000
RightUpLeg -27.516715 -5.960571 5.030849
RightLeg -0.992429 -0.000000 0.000000
RightFoot -10.659644 -4.327152 10.741271
RightToeBase 15.427751 -0.000000 -0.000000
2
root -0.250433 32.401223 -6.192335 33.601366 3.770292 0.318848
Spine -39.524602 -2.807610 0.917158
Head 11.291460 -5.777526 -8.268230
LeftShoulder -15.251838 39.250138 27.518730
LeftArm 42.386189 -47.496585 -48.876378
LeftForeArm 14.927186 -0.000000 -1.231750
LeftHand -20.520948 -0.000000 -7.223273
LeftHandThumb1 -26.253704 0.000000 33.147579
RightShoulder -19.132583 -41.810192 -27.957802
RightArm 45.619035 34.088773 51.457207
RightForeArm 7.655888 -0.000000 -5.232545
RightHand 6.643460 -0.000000 9.397336
RightHandThumb1 -24.326973 -0.000000 -32.862282
LeftUpLeg -28.779768 1.876004 0.948741
LeftLeg 0.705732 -0.000000 -0.000000
LeftFoot -6.933009 -1.194674 -0.801570
LeftToeBase 2.799618 -0.000000 -0.000000
RightUpLeg -27.531381 -5.963616 5.036759
RightLeg -0.994380 -0.000000 0.000000
RightFoot -10.689539 -4.360036 10.601946
RightToeBase 15.558180 -0.000000 -0.000000
3
root -0.250303 32.400632 -6.189627 33.618029 3.768864 0.316866
Spine -39.531599 -2.786154 0.907224
Head 11.286853 -5.826955 -8.267959
LeftShoulder -15.249176 39.245455 27.525227
LeftArm 42.411796 -47.513373 -48.917197
LeftForeArm 14.934642 -0.000000 -1.236575
LeftHand -20.510140 -0.000000 -7.195926
LeftHandThumb1 -26.253704 0.000000 33.147579
RightShoulder -19.171514 -41.827152 -27.927919
RightArm 45.604775 34.098683 51.429398
RightForeArm 7.650598 0.000000 -5.215748
RightHand 6.629501 -0.000000 9.397834
RightHandThumb1 -24.326973 -0.000000 -32.862282
LeftUpLeg -28.790797 1.868493 0.953460
LeftLeg 0.705962 -0.000000 -0.000000
LeftFoot -6.946500 -1.171699 -0.830186
LeftToeBase 2.799963 -0.000000 -0.000000
RightUpLeg -27.540133 -5.968885 5.041407
RightLeg -1.003270 -0.000000 0.000000
RightFoot -10.663521 -4.319377 10.724675
RightToeBase 15.452866 -0.000000 -0.000000
4
root -0.250615 32.400397 -6.186330 33.625375 3.773776 0.319771
Spine -39.534033 -2.784558 0.905803
Head 11.286442 -5.856200 -8.264202
LeftShoulder -15.248072 39.238217 27.526496
LeftArm 42.394387 -47.511779 -48.915099
LeftForeArm 14.917212 -0.000000 -1.234997
LeftHand -20.528777 -0.000000 -7.192705
LeftHandThumb1 -26.253704 0.000000 33.147579
RightShoulder -19.183124 -41.817647 -27.924137
RightArm 45.585883 34.092985 51.405088
RightForeArm 7.639868 -0.000000 -5.216432
RightHand 6.645565 -0.000000 9.328110
RightHandThumb1 -24.326973 -0.000000 -32.862282
LeftUpLeg -28.790129 1.863988 0.955276
LeftLeg 0.700260 -0.000000 -0.000000
LeftFoot -6.956372 -1.178717 -0.823791
LeftToeBase 2.831977 -0.000000 -0.000000
RightUpLeg -27.539884 -5.968012 5.040847
RightLeg -1.002175 -0.000000 0.000000
RightFoot -10.691965 -4.359055 10.589854
RightToeBase 15.523442 -0.000000 -0.000000
5
root -0.251100 32.399892 -6.182696 33.640066 3.767363 0.317115
Spine -39.549223 -2.773978 0.903898
Head 11.291959 -5.887740 -8.253267
LeftShoulder -15.240698 39.239084 27.533697
LeftArm 42.382211 -47.523437 -48.926479
LeftForeArm 14.932061 -0.000000 -1.230631
LeftHand -20.545768 0.000000 -7.205656
LeftHandThumb1 -26.253704 0.000000 33.147579
RightShoulder -19.190879 -41.825805 -27.918964
RightArm 45.576038 34.081005 51.369062
RightForeArm 7.651779 -0.000000 -5.231105
RightHand 6.645536 -0.000000 9.319968
RightHandThumb1 -24.326973 -0.000000 -32.862282
LeftUpLeg -28.799173 1.883241 0.948922
LeftLeg 0.705129 -0.000000 -0.000000
LeftFoot -6.967701 -1.196863 -0.807145
LeftToeBase 2.843869 -0.000000 -0.000000
RightUpLeg -27.545147 -5.962207 5.041969
RightLeg -1.008201 -0.000000 0.000000
RightFoot -10.685277 -4.342837 10.612642
RightToeBase 15.485971 -0.000000 -0.000000
6
root -0.251411 32.400083 -6.179593 33.655009 3.777115 0.321245
Spine -39.559899 -2.773271 0.900359
Head 11.308535 -5.930164 -8.250033
LeftShoulder -15.246177 39.230667 27.534229
LeftArm 42.406524 -47.523381 -48.954985
LeftForeArm 14.965854 -0.000000 -1.247254
LeftHand -20.551136 -0.000000 -7.168407
LeftHandThumb1 -26.253704 0.000000 33.147579
RightShoulder -19.210826 -41.830073 -27.906400
RightArm 45.557706 34.070358 51.342799
RightForeArm 7.670026 -0.000000 -5.222346
RightHand 6.648767 -0.000000 9.303630
RightHandThumb1 -24.326973 -0.000000 -32.862282
LeftUpLeg -28.810397 1.864616 0.953856
LeftLeg 0.707509 -0.000000 -0.000000
LeftFoot -6.959441 -1.175063 -0.798435
LeftToeBase 2.772724 -0.000000 -0.000000
RightUpLeg -27.549375 -5.967936 5.042679
RightLeg -1.016616 -0.000000 0.000000
RightFoot -10.699246 -4.340818 10.619563
RightToeBase 15.566541 -0.000000 -0.000000
7
root -0.251408 32.399764 -6.176324 33.669275 3.772552 0.323040
Spine -39.572672 -2.770747 0.899657
Head 11.314090 -5.946767 -8.242182
LeftShoulder -15.263880 39.255444 27.518573
LeftArm 42.417269 -47.523504 -48.962457
LeftForeArm 14.974906 0.000000 -1.245217
LeftHand -20.549865 -0.000000 -7.174881
LeftHandThumb1 -26.253704 0.000000 33.147579
RightShoulder -19.218726 -41.852097 -27.889175
RightArm 45.570622 34.093007 51.335161
RightForeArm 7.706709 -0.000000 -5.224031
RightHand 6.634074 0.000000 9.310327
RightHandThumb1 -24.326973 -0.000000 -32.862282
LeftUpLeg -28.818610 1.869650 0.950990
LeftLeg 0.707074 -0.000000 -0.000000
LeftFoot -6.966323 -1.197778 -0.839702
LeftToeBase 2.827128 -0.000000 -0.000000
RightUpLeg -27.553468 -5.968132 5.042588
RightLeg -1.027124 -0.000000 0.000000
RightFoot -10.692382 -4.358787 10.586545
RightToeBase 15.507493 -0.000000 -0.000000
8
root -0.251529 32.399794 -6.173630 33.686966 3.775592 0.323148
Spine -39.588718 -2.756986 0.894951
Head 11.328621 -5.977898 -8.243477
LeftShoulder -15.247712 39.235533 27.522424
LeftArm 42.379460 -47.495496 -48.922899
LeftForeArm 14.969492 -0.000000 -1.253621
LeftHand -20.533402 -0.000000 -7.173565
LeftHandThumb1 -26.253704 0.000000 33.147579
RightShoulder -19.238672 -41.868870 -27.879533
RightArm 45.582208 34.123556 51.365674
RightForeArm 7.710439 -0.000000 -5.214886
RightHand 6.634531 -0.000000 9.313448
RightHandThumb1 -24.326973 -0.000000 -32.862282
LeftUpLeg -28.832732 1.868558 0.950959
LeftLeg 0.708779 -0.000000 -0.000000
LeftFoot -6.964513 -1.185875 -0.806138
LeftToeBase 2.810771 -0.000000 -0.000000
RightUpLeg -27.573456 -5.984614 5.054806
RightLeg -1.016874 -0.000000 0.000000
RightFoot -10.690888 -4.329278 10.591078
RightToeBase 15.517039 -0.000000 -0.000000
9
root -0.251909 32.399418 -6.169974 33.693399 3.776907 0.324555
Spine -39.594122 -2.751886 0.894258
Head 11.341465 -5.989259 -8.234866
LeftShoulder -15.254562 39.235305 27.511567
LeftArm 42.402398 -47.510184 -48.953092
LeftForeArm 14.994073 0.000000 -1.253635
LeftHand -20.523430 0.000000 -7.154956
LeftHandThumb1 -26.253704 0.000000 33.147579
RightShoulder -19.244599 -41.843667 -27.881210
RightArm 45.555391 34.103988 51.339406
RightForeArm 7.766597 -0.000000 -5.221876
RightHand 6.635797 0.000000 9.328851
RightHandThumb1 -24.326973 -0.000000 -32.862282
LeftUpLeg -28.829472 1.853603 0.958927
LeftLeg 0.704676 -0.000000 -0.000000
LeftFoot -6.974093 -1.172313 -0.820747
LeftToeBase 2.817333 -0.000000 -0.000000
RightUpLeg -27.565008 -5.973386 5.047533
RightLeg -1.029243 -0.000000 0.000000
RightFoot -10.697605 -4.341783 10.616572
RightToeBase 15.543147 -0.000000 -0.000000
